<svg width="135" height="54" viewBox="0 0 135 54" fill="none" xmlns="http://www.w3.org/2000/svg">
<g id="Time">
<g id="Time_2">
<path id="Vector" d="M82.0657 35.3396V25.47H81.9163L78.9363 27.5701V25.5613L82.0657 23.3616H84.199V35.3396H82.0657Z" fill="#282E34"/>
<path id="Vector_2" d="M73.4495 35.3396V33.0403H67.5892V31.2888C67.9046 30.7521 68.22 30.2125 68.5355 29.6702C68.8564 29.1279 69.1802 28.5883 69.5067 28.0515C69.8387 27.5092 70.1679 26.9752 70.4944 26.4495C70.8265 25.9182 71.1557 25.3953 71.4822 24.8806C71.8143 24.3605 72.1463 23.8541 72.4783 23.3616H75.4915V31.2722H77.1102V33.0403H75.4915V35.3396H73.4495ZM69.5814 31.3221H73.4827V25.0716H73.3582C73.1147 25.4479 72.8629 25.8352 72.6028 26.2337C72.3483 26.6321 72.091 27.0388 71.8309 27.4539C71.5708 27.8689 71.3135 28.2867 71.0589 28.7073C70.8043 29.1223 70.5526 29.5402 70.3035 29.9607C70.0545 30.3758 69.8138 30.788 69.5814 31.1975V31.3221Z" fill="#282E34"/>
<path id="Vector_3" d="M63.8704 33.7293C63.4941 33.7293 63.1787 33.6048 62.9241 33.3557C62.6751 33.1012 62.5506 32.7913 62.5506 32.4261C62.5506 32.0553 62.6751 31.7454 62.9241 31.4964C63.1787 31.2418 63.4941 31.1145 63.8704 31.1145C64.2523 31.1145 64.5677 31.2418 64.8167 31.4964C65.0657 31.7454 65.1902 32.0553 65.1902 32.4261C65.1902 32.7913 65.0657 33.1012 64.8167 33.3557C64.5677 33.6048 64.2523 33.7293 63.8704 33.7293ZM63.8704 27.5701C63.4941 27.5701 63.1787 27.4456 62.9241 27.1966C62.6751 26.942 62.5506 26.6321 62.5506 26.2669C62.5506 25.8961 62.6751 25.5862 62.9241 25.3372C63.1787 25.0826 63.4941 24.9554 63.8704 24.9554C64.2523 24.9554 64.5677 25.0826 64.8167 25.3372C65.0657 25.5862 65.1902 25.8961 65.1902 26.2669C65.1902 26.6321 65.0657 26.942 64.8167 27.1966C64.5677 27.4456 64.2523 27.5701 63.8704 27.5701Z" fill="#282E34"/>
<path id="Vector_4" d="M55.3123 23.0628C55.9542 23.0628 56.563 23.1818 57.1385 23.4197C57.714 23.6521 58.2231 24.0174 58.6658 24.5154C59.1141 25.0079 59.4655 25.6416 59.72 26.4163C59.9746 27.1855 60.1019 28.1124 60.1019 29.1971V29.2137C60.1019 30.5584 59.9082 31.7094 59.5208 32.6668C59.1334 33.6241 58.5773 34.3601 57.8524 34.8748C57.133 35.3839 56.2724 35.6385 55.2708 35.6385C54.5348 35.6385 53.8707 35.5056 53.2786 35.24C52.692 34.9689 52.2051 34.5981 51.8177 34.1277C51.4359 33.6518 51.1785 33.1095 51.0457 32.5008L51.0291 32.4095H53.1292L53.1624 32.4925C53.2676 32.7692 53.417 33.0126 53.6107 33.2229C53.8099 33.4332 54.0478 33.5965 54.3245 33.7127C54.6068 33.8234 54.9222 33.8787 55.2708 33.8787C55.9017 33.8787 56.4163 33.6933 56.8148 33.3225C57.2187 32.9462 57.5203 32.4454 57.7195 31.8201C57.9243 31.1892 58.0405 30.492 58.0682 29.7283C58.0737 29.6453 58.0765 29.5651 58.0765 29.4876C58.0765 29.4046 58.0765 29.3243 58.0765 29.2469L57.7029 27.2464C57.7029 26.7926 57.5978 26.3803 57.3875 26.0096C57.1772 25.6388 56.8922 25.3455 56.5325 25.1297C56.1784 24.9138 55.7772 24.8059 55.3289 24.8059C54.8973 24.8059 54.5016 24.9111 54.1419 25.1214C53.7822 25.3317 53.4944 25.6194 53.2786 25.9846C53.0628 26.3444 52.9549 26.7483 52.9549 27.1966V27.2132C52.9549 27.678 53.0573 28.0903 53.262 28.45C53.4668 28.8041 53.7462 29.0836 54.1004 29.2884C54.4546 29.4931 54.8585 29.5955 55.3123 29.5955C55.7661 29.5955 56.1728 29.4959 56.5325 29.2967C56.8922 29.0974 57.1772 28.8207 57.3875 28.4666C57.5978 28.1124 57.7029 27.7112 57.7029 27.263V27.2464H58.201V29.4544H57.9105C57.7666 29.7698 57.5535 30.0631 57.2713 30.3343C56.9891 30.6054 56.6404 30.824 56.2254 30.99C55.8159 31.156 55.3345 31.239 54.7811 31.239C54.0174 31.239 53.3423 31.0675 52.7557 30.7244C52.1691 30.3813 51.707 29.9109 51.3694 29.3133C51.0374 28.7156 50.8714 28.0405 50.8714 27.2879V27.2713C50.8714 26.4578 51.0595 25.7356 51.4359 25.1048C51.8177 24.4684 52.3434 23.9703 53.013 23.6106C53.6881 23.2454 54.4546 23.0628 55.3123 23.0628Z" fill="#282E34"/>
</g>
</g>
</svg>
